<svg xmlns="http://www.w3.org/2000/svg" width="135.716" height="40.019"><style><![CDATA[.B{fill-rule:nonzero}.C{stroke:none}.D{fill:#000}.E{fill-opacity:1}]]></style><defs><linearGradient x1="25.44" y1="14.968" x2="12.014" y2="28.394" gradientUnits="userSpaceOnUse" spreadMethod="pad" id="A"><stop offset="0" stop-color="#00a0ff"/><stop offset=".007" stop-color="#00a1ff"/><stop offset=".26" stop-color="#00beff"/><stop offset=".512" stop-color="#00d2ff"/><stop offset=".76" stop-color="#00dfff"/><stop offset="1" stop-color="#00e3ff"/></linearGradient><linearGradient x1="35.068" y1="24.001" x2="15.71" y2="24.001" gradientUnits="userSpaceOnUse" spreadMethod="pad" id="B"><stop offset="0" stop-color="#ffe000"/><stop offset=".409" stop-color="#ffbd00"/><stop offset=".775" stop-color="orange"/><stop offset="1" stop-color="#ff9c00"/></linearGradient><linearGradient x1="27.862" y1="25.837" x2="9.655" y2="44.044" gradientUnits="userSpaceOnUse" spreadMethod="pad" id="C"><stop offset="0" stop-color="#ff3a44"/><stop offset="1" stop-color="#c31162"/></linearGradient><linearGradient x1="13.838" y1="8.141" x2="21.968" y2="16.271" gradientUnits="userSpaceOnUse" spreadMethod="pad" id="D"><stop offset="0" stop-color="#32a071"/><stop offset=".069" stop-color="#2da771"/><stop offset=".476" stop-color="#15cf74"/><stop offset=".801" stop-color="#06e775"/><stop offset="1" stop-color="#00f076"/></linearGradient><clipPath id="E"><path d="M0 0h124v48H0V0z"/></clipPath><mask maskUnits="userSpaceOnUse" x="0" y="0" width="1" height="1" id="F"><g clip-path="url(#E)"><path d="M0 0h124v48H0V0z" fill-opacity=".2" class="B C D"/></g></mask><clipPath id="G"><path d="M0 0h124v48H0V0z"/></clipPath><clipPath id="H"><path d="M0 0h124v48H0V0z"/></clipPath><pattern patternTransform="matrix(1,0,0,-1,0,48)" patternUnits="userSpaceOnUse" width="124" height="48" id="I"><g clip-path="url(#H)"><path d="M29.625 20.695l-11.613-6.597c-.65-.37-1.23-.344-1.606-.008l-.058-.063.058-.058c.375-.336.957-.36 1.606.01L29.7 20.62l-.074.074z" class="B C D E"/></g></pattern><clipPath id="J"><path d="M0 0h124v48H0V0z"/></clipPath><mask maskUnits="userSpaceOnUse" x="0" y="0" width="1" height="1" id="K"><g clip-path="url(#J)"><path d="M0 0h124v48H0V0z" fill-opacity=".12" class="B C D"/></g></mask><clipPath id="L"><path d="M0 0h124v48H0V0z"/></clipPath><clipPath id="M"><path d="M0 0h124v48H0V0z"/></clipPath><pattern patternTransform="matrix(1,0,0,-1,0,48)" patternUnits="userSpaceOnUse" width="124" height="48" id="N"><g clip-path="url(#M)"><path d="M16.348 14.145c-.235.246-.37.628-.37 1.125v-.118c0-.496.136-.88.37-1.125l.058.063-.058.055z" class="B C D E"/></g></pattern><clipPath id="O"><path d="M0 0h124v48H0V0z"/></clipPath><mask maskUnits="userSpaceOnUse" x="0" y="0" width="1" height="1" id="P"><g clip-path="url(#O)"><path d="M0 0h124v48H0V0z" fill-opacity=".12" class="B C D"/></g></mask><clipPath id="Q"><path d="M0 0h124v48H0V0z"/></clipPath><clipPath id="R"><path d="M0 0h124v48H0V0z"/></clipPath><pattern patternTransform="matrix(1,0,0,-1,0,48)" patternUnits="userSpaceOnUse" width="124" height="48" id="S"><g clip-path="url(#R)"><path d="M33.613 22.96l-3.988-2.266.074-.074 3.914 2.223c.56.316.836.734.836 1.156-.047-.38-.332-.75-.836-1.04z" class="B C D E"/></g></pattern><clipPath id="T"><path d="M0 0h124v48H0V0z"/></clipPath><mask maskUnits="userSpaceOnUse" x="0" y="0" width="1" height="1" id="U"><g clip-path="url(#T)"><path d="M0 0h124v48H0V0z" fill-opacity=".25" class="B C D"/></g></mask><clipPath id="V"><path d="M0 0h124v48H0V0z"/></clipPath><clipPath id="W"><path d="M0 0h124v48H0V0z"/></clipPath><pattern patternTransform="matrix(1,0,0,-1,0,48)" patternUnits="userSpaceOnUse" width="124" height="48" id="X"><g clip-path="url(#W)"><path d="M18.012 33.902l15.6-8.863c.508-.29.79-.66.836-1.04 0 .418-.277.836-.836 1.156l-15.6 8.864c-1.117.632-2.035.105-2.035-1.176v-.114c0 1.278.918 1.805 2.035 1.172z" fill="#fff" class="B C E"/></g></pattern></defs><g transform="matrix(1.25299 0 0 -1.238412 -9.795572 49.85025)"><path d="M112 8H12c-2.2 0-4 1.8-4 4v24c0 2.2 1.8 4 4 4h100c2.2 0 4-1.8 4-4V12c0-2.2-1.8-4-4-4z"/><path d="M112 39.36c1.852 0 3.36-1.507 3.36-3.36V12c0-1.852-1.507-3.36-3.36-3.36H12c-1.852 0-3.36 1.507-3.36 3.36v24c0 1.852 1.507 3.36 3.36 3.36h100m0 .64H12c-2.2 0-4-1.8-4-4V12c0-2.2 1.8-4 4-4h100c2.2 0 4 1.8 4 4v24c0 2.2-1.8 4-4 4z" fill="#a6a6a6"/><g fill="#fff"><path d="M45.934 31.805c0-.668-.2-1.203-.594-1.602-.453-.473-1.043-.7-1.766-.7-.7 0-1.28.242-1.765.72-.485.484-.727 1.078-.727 1.8s.242 1.305.727 1.785a2.42 2.42 0 0 0 1.765.723c.344 0 .672-.07.985-.203s.566-.313.75-.535l-.418-.422c-.32.38-.758.566-1.317.566a1.83 1.83 0 0 1-1.312-.531c-.367-.356-.55-.817-.55-1.383s.184-1.03.55-1.387a1.85 1.85 0 0 1 1.312-.531c.535 0 .985.18 1.34.535.234.235.367.56.402.973h-1.742v.578h2.324c.028-.125.036-.246.036-.363zM49.62 33.8h-2.183V32.3h1.968v-.578h-1.968v-1.52h2.183v-.6h-2.8v4.796h2.8v-.6zm2.603-4.208h-.618v4.207h-1.34v.6h3.297v-.6h-1.34v-4.207zm3.727 0v4.796h.617v-4.796h-.617zm3.35 0h-.613v4.207h-1.344v.6h3.3v-.6H59.3v-4.207zm7.587.618c-.473-.485-1.06-.727-1.758-.727s-1.3.242-1.762.727-.707 1.078-.707 1.78a2.45 2.45 0 0 0 .707 1.78c.472.483 1.06.727 1.762.727.695 0 1.28-.242 1.754-.73a2.45 2.45 0 0 0 .71-1.777c0-.7-.235-1.297-.707-1.78zm-3.063.402c.356-.36.8-.54 1.305-.54s.95.18 1.3.54.535.82.535 1.38-.18 1.02-.535 1.38-.8.54-1.3.54a1.77 1.77 0 0 1-1.305-.54c-.355-.36-.535-.82-.535-1.38s.18-1.02.535-1.38zm4.636-1.02v4.796h.75l2.332-3.73h.027l-.027.922v2.808h.617v-4.796h-.644l-2.442 3.914h-.027l.027-.926v-2.988h-.613z" stroke="#fff" stroke-width=".16" stroke-miterlimit="10"/><path d="M62.508 22.598c-1.88 0-3.414-1.43-3.414-3.403 0-1.957 1.535-3.402 3.414-3.402s3.418 1.445 3.418 3.402c0 1.973-1.535 3.403-3.418 3.403zm0-5.465c-1.03 0-1.918.85-1.918 2.062 0 1.227.887 2.063 1.918 2.063s1.922-.836 1.922-2.063c0-1.21-.89-2.062-1.922-2.062zm-7.45 5.465c-1.883 0-3.414-1.43-3.414-3.403 0-1.957 1.53-3.402 3.414-3.402s3.414 1.445 3.414 3.402c0 1.973-1.532 3.403-3.414 3.403zm0-5.465c-1.032 0-1.922.85-1.922 2.062 0 1.227.9 2.063 1.922 2.063s1.918-.836 1.918-2.063c0-1.21-.887-2.062-1.918-2.062zm-8.864 4.422V20.11h3.453c-.1-.808-.37-1.402-.785-1.816-.504-.5-1.29-1.055-2.668-1.055-2.125 0-3.79 1.715-3.79 3.84s1.664 3.84 3.79 3.84a3.66 3.66 0 0 0 2.602-1.031l1.02 1.02c-.863.824-2.01 1.457-3.62 1.457-2.914 0-5.363-2.37-5.363-5.285s2.45-5.285 5.363-5.285c1.575 0 2.758.516 3.688 1.484.953.953 1.25 2.293 1.25 3.375 0 .336-.028.645-.078.903h-4.86zm36.246-1.12c-.28.76-1.148 2.164-2.914 2.164-1.75 0-3.207-1.38-3.207-3.403 0-1.906 1.442-3.402 3.375-3.402 1.563 0 2.465.953 2.836 1.508l-1.16.773c-.387-.566-.914-.94-1.676-.94-.757 0-1.3.347-1.648 1.03l4.55 1.883-.157.387zM77.8 19.3c-.04 1.312 1.02 1.984 1.777 1.984.594 0 1.098-.297 1.266-.722L77.8 19.3zm-3.7-3.3h1.496v10h-1.496V16zm-2.45 5.84h-.05c-.336.398-.977.758-1.79.758-1.704 0-3.262-1.496-3.262-3.414 0-1.907 1.558-3.39 3.262-3.39.812 0 1.453.363 1.79.773h.05v-.488c0-1.3-.695-2-1.816-2-.914 0-1.48.66-1.715 1.215l-1.3-.543c.375-.902 1.368-2.012 3.016-2.012 1.754 0 3.234 1.032 3.234 3.543v6.1h-1.418v-.55zm-1.71-4.707c-1.03 0-1.894.863-1.894 2.05 0 1.2.863 2.074 1.894 2.074 1.016 0 1.817-.875 1.817-2.074 0-1.188-.8-2.05-1.817-2.05zM89.445 26h-3.578V16h1.492v3.79h2.086c1.657 0 3.282 1.2 3.282 3.106S91.098 26 89.445 26zm.04-4.82H87.36v3.43h2.125c1.114 0 1.75-.925 1.75-1.714 0-.774-.636-1.715-1.75-1.715zm9.223 1.437c-1.078 0-2.2-.476-2.66-1.53l1.324-.555c.285.555.81.735 1.363.735.774 0 1.56-.465 1.57-1.286v-.105c-.27.156-.848.387-1.56.387-1.426 0-2.88-.785-2.88-2.25 0-1.34 1.168-2.203 2.48-2.203 1.004 0 1.558.453 1.906.98h.05v-.773h1.44v3.836c0 1.773-1.324 2.765-3.04 2.765zm-.18-5.48c-.488 0-1.168.242-1.168.847 0 .774.848 1.07 1.582 1.07.657 0 .965-.145 1.364-.336-.117-.926-.914-1.582-1.778-1.582zm8.47 5.26l-1.715-4.335h-.05l-1.773 4.335h-1.61l2.664-6.058-1.52-3.37h1.56l4.105 9.43h-1.66zM93.547 16h1.496v10h-1.496V16z"/></g><path d="M16.348 33.97c-.235-.246-.37-.63-.37-1.125V15.152c0-.496.136-.88.37-1.125l.058-.054 9.914 9.9v.234l-9.914 9.9-.058-.058z" fill="url(#A)"/><path d="M29.62 20.578l-3.3 3.305v.234l3.305 3.305.074-.043 3.914-2.227c1.117-.632 1.117-1.672 0-2.308l-3.992-2.266z" fill="url(#B)"/><path d="M29.7 20.62L26.32 24l-9.972-9.973c.37-.4.976-.437 1.664-.047L29.7 20.62" fill="url(#C)"/><path d="M29.7 27.38l-11.687 6.64c-.688.386-1.293.34-1.664-.05L26.32 24l3.38 3.38z" fill="url(#D)"/><g mask="url(#F)"><g clip-path="url(#G)"><path d="M0 0h124v48H0V0z" fill="url(#I)"/></g></g><g mask="url(#K)"><g clip-path="url(#L)"><path d="M0 0h124v48H0V0z" fill="url(#N)"/></g></g><g mask="url(#P)"><g clip-path="url(#Q)"><path d="M0 0h124v48H0V0z" fill="url(#S)"/></g></g><g mask="url(#U)"><g clip-path="url(#V)"><path d="M0 0h124v48H0V0z" fill="url(#X)"/></g></g></g></svg>