<svg xmlns="http://www.w3.org/2000/svg" viewBox="0 0 36 36"><defs><style>.cls-1{fill:#FFFFFF;}</style></defs><title>r.ca social media icons 2019b</title><g id="icon-pinterest_-_transparent" data-name="icon-pinterest - transparent"><path class="cls-1" d="M18,0a18,18,0,0,0-7.14,34.52V34.4h0a16.94,16.94,0,0,1,.07-5C11.24,28,13,20.44,13,20.44a6.47,6.47,0,0,1-.54-2.66c0-2.51,1.45-4.37,3.26-4.37A2.26,2.26,0,0,1,18,15.94c0,1.54-1,3.85-1.5,6a2.62,2.62,0,0,0,2.67,3.25c3.2,0,5.65-3.37,5.65-8.23,0-4.31-3.09-7.31-7.52-7.31a7.78,7.78,0,0,0-8.12,7.8,7,7,0,0,0,1.33,4.1.55.55,0,0,1,.12.52c-.14.56-.45,1.79-.51,2s-.26.4-.6.24c-2.25-1.05-3.66-4.32-3.66-7C5.88,11.71,10,6.5,17.77,6.5c6.23,0,11.08,4.44,11.08,10.39,0,6.2-3.9,11.19-9.32,11.19A4.8,4.8,0,0,1,15.41,26l-1.12,4.27A19.53,19.53,0,0,1,12.07,35h0A18,18,0,1,0,18,0Z"/></g></svg>