<?xml version="1.0" encoding="UTF-8" standalone="no"?>
<svg
   xmlns:dc="http://purl.org/dc/elements/1.1/"
   xmlns:cc="http://creativecommons.org/ns#"
   xmlns:rdf="http://www.w3.org/1999/02/22-rdf-syntax-ns#"
   xmlns:svg="http://www.w3.org/2000/svg"
   xmlns="http://www.w3.org/2000/svg"
   xmlns:sodipodi="http://sodipodi.sourceforge.net/DTD/sodipodi-0.dtd"
   xmlns:inkscape="http://www.inkscape.org/namespaces/inkscape"
   viewBox="0 0 448 447.98801"
   version="1.1"
   id="svg4"
   sodipodi:docname="sticky-note.svg"
   width="448"
   height="447.98801"
   inkscape:version="0.92.1 r15371">
  <metadata
     id="metadata10">
    <rdf:RDF>
      <cc:Work
         rdf:about="">
        <dc:format>image/svg+xml</dc:format>
        <dc:type
           rdf:resource="http://purl.org/dc/dcmitype/StillImage" />
        <dc:title></dc:title>
      </cc:Work>
    </rdf:RDF>
  </metadata>
  <defs
     id="defs8" />
  <sodipodi:namedview
     pagecolor="#ffffff"
     bordercolor="#666666"
     borderopacity="1"
     objecttolerance="10"
     gridtolerance="10"
     guidetolerance="10"
     inkscape:pageopacity="0"
     inkscape:pageshadow="2"
     inkscape:window-width="732"
     inkscape:window-height="480"
     id="namedview6"
     showgrid="false"
     fit-margin-top="0"
     fit-margin-left="0"
     fit-margin-right="0"
     fit-margin-bottom="0"
     inkscape:zoom="0.4609375"
     inkscape:cx="224"
     inkscape:cy="223.988"
     inkscape:window-x="475"
     inkscape:window-y="93"
     inkscape:window-maximized="0"
     inkscape:current-layer="svg4" />
  <path
     style="fill:#f3e500"
     d="M 448,316.106 V 48 C 448,21.49 426.51,0 400,0 H 48 C 21.49,0 0,21.49 0,48 v 351.988 c 0,26.51 21.49,48 48,48 h 268.118 a 48,48 0 0 0 33.941,-14.059 l 83.882,-83.882 A 48,48 0 0 0 448,316.106 Z M 327.431,411.302 A 15.89,15.89 0 0 1 320,415.497 v -95.509 h 95.509 a 15.88,15.88 0 0 1 -4.195,7.431 z M 416,48 V 287.988 H 312 c -13.255,0 -24,10.745 -24,24 v 104 H 48 c -8.837,0 -16,-7.163 -16,-16 V 48 c 0,-8.837 7.163,-16 16,-16 h 352 c 8.837,0 16,7.163 16,16 z"
     id="path2"
     inkscape:connector-curvature="0" />
</svg>
