<?xml version="1.0" encoding="UTF-8" standalone="no"?>
<svg
   viewBox="0 0 29 25"
   version="1.1"
   id="svg15"
   sodipodi:docname="heart.svg"
   inkscape:version="1.1.1 (3bf5ae0d25, 2021-09-20)"
   xmlns:inkscape="http://www.inkscape.org/namespaces/inkscape"
   xmlns:sodipodi="http://sodipodi.sourceforge.net/DTD/sodipodi-0.dtd"
   xmlns="http://www.w3.org/2000/svg"
   xmlns:svg="http://www.w3.org/2000/svg"
   xmlns:rdf="http://www.w3.org/1999/02/22-rdf-syntax-ns#"
   xmlns:cc="http://creativecommons.org/ns#"
   xmlns:dc="http://purl.org/dc/elements/1.1/">
  <sodipodi:namedview
     id="namedview17"
     pagecolor="#ffffff"
     bordercolor="#666666"
     borderopacity="1.0"
     inkscape:pageshadow="2"
     inkscape:pageopacity="0.0"
     inkscape:pagecheckerboard="0"
     showgrid="false"
     inkscape:zoom="16.64"
     inkscape:cx="15.77524"
     inkscape:cy="10.00601"
     inkscape:window-width="1920"
     inkscape:window-height="1017"
     inkscape:window-x="1912"
     inkscape:window-y="-8"
     inkscape:window-maximized="1"
     inkscape:current-layer="New_Symbol_8" />
  <defs
     id="defs4">
    <style
       id="style2">.cls-1{fill:#d0191d;}.cls-2{fill:#fff;}</style>
  </defs>
  <title
     id="title6">Asset 10</title>
  <g
     id="Layer_2"
     data-name="Layer 2"
     style="display:inline">
    <g
       id="HOME"
       style="display:inline">
      <g
         id="New_Symbol_8"
         data-name="New Symbol 8"
         style="display:inline">
        <path
           class="cls-1"
           d="m 8.39,0.71 a 7.68,7.68 0 0 1 6.11,3 7.7,7.7 0 0 1 13.8,4.66 c 0,6.78 -14.1,15.79 -14.1,15.79 0,0 -13.5,-9.01 -13.5,-15.79 A 7.67,7.67 0 0 1 8.39,0.71"
           id="path8"
           style="display:inline" />
        <path
           class="cls-2"
           d="M 14.19,25 13.81,24.75 C 13.25,24.37 0,15.45 0,8.37 A 8.4,8.4 0 0 1 14.5,2.63 8.4,8.4 0 0 1 29,8.37 c 0,7.09 -13.84,16 -14.43,16.39 z M 8.39,1.42 a 7,7 0 0 0 -7,6.95 C 1.4,14.08 12,21.8 14.2,23.3 16.43,21.81 27.6,14.08 27.6,8.37 A 7,7 0 0 0 15.05,4.15 L 14.5,4.87 13.95,4.15 A 7,7 0 0 0 8.39,1.42 Z"
           id="path10"
           style="display:none" />
      </g>
    </g>
  </g>
  <metadata
     id="metadata834">
    <rdf:RDF>
      <cc:Work
         rdf:about="">
        <dc:title>Asset 10</dc:title>
      </cc:Work>
    </rdf:RDF>
  </metadata>
</svg>
