<svg xmlns="http://www.w3.org/2000/svg" viewBox="0 0 36 36"><defs><style>.cls-1{fill:#FFFFFF;}</style></defs><title>r.ca social media icons 2019b</title><g id="icon-instagram_-_transparent" data-name="icon-instagram - transparent"><path class="cls-1" d="M18.16,14.34a3.83,3.83,0,1,0,0,7.65h0A3.82,3.82,0,0,0,22,18.17h0A3.83,3.83,0,0,0,18.16,14.34Z"/><path class="cls-1" d="M27,11.49a3.75,3.75,0,0,0-2.15-2.14A6.25,6.25,0,0,0,22.74,9c-1.19-.06-1.55-.07-4.57-.07h0c-3,0-3.38,0-4.58.07a6.34,6.34,0,0,0-2.1.39,3.76,3.76,0,0,0-2.14,2.14A6.11,6.11,0,0,0,9,13.6c-.06,1.19-.07,1.55-.07,4.57s0,3.38.07,4.57a6,6,0,0,0,.39,2.1A3.75,3.75,0,0,0,11.49,27a6.34,6.34,0,0,0,2.1.39c1.2.05,1.55.06,4.58.06s3.38,0,4.57-.06a6.25,6.25,0,0,0,2.1-.39A3.73,3.73,0,0,0,27,24.84a6.25,6.25,0,0,0,.39-2.1c.05-1.19.06-1.55.06-4.57s0-3.38-.06-4.57A6.35,6.35,0,0,0,27,11.49ZM18.17,24.06a5.9,5.9,0,1,1,5.89-5.89A5.9,5.9,0,0,1,18.17,24.06Zm6-10.61a1.34,1.34,0,1,1,1.34-1.34A1.34,1.34,0,0,1,24.22,13.45Z"/><path class="cls-1" d="M18,0A18,18,0,1,0,36,18,18,18,0,0,0,18,0ZM29.41,22.83a8.33,8.33,0,0,1-.52,2.75,5.8,5.8,0,0,1-3.31,3.31,8.59,8.59,0,0,1-2.75.52c-1.21.06-1.59.07-4.66.07s-3.46,0-4.67-.07a8.48,8.48,0,0,1-2.74-.52,5.8,5.8,0,0,1-3.31-3.31,8.34,8.34,0,0,1-.53-2.75c0-1.21-.07-1.59-.07-4.66s0-3.46.07-4.67a8.34,8.34,0,0,1,.53-2.75,5.78,5.78,0,0,1,3.31-3.3,8.23,8.23,0,0,1,2.74-.53c1.21,0,1.59-.07,4.67-.07h0c3.07,0,3.45,0,4.66.07a8.34,8.34,0,0,1,2.75.53,5.78,5.78,0,0,1,3.31,3.3,8.33,8.33,0,0,1,.52,2.75c.06,1.21.07,1.59.07,4.67S29.47,21.62,29.41,22.83Z"/></g></svg>