<svg xmlns="http://www.w3.org/2000/svg" viewBox="0 0 36 36"><defs><style>.cls-1{fill:#23a1c0;}</style></defs><title>r.ca social media icons 2019b</title><g id="icon-email_-_transparent" data-name="icon-email - transparent"><path class="cls-1" d="M18,0A18,18,0,1,0,36,18,18,18,0,0,0,18,0ZM28,23.7a1.88,1.88,0,0,1-1.88,1.87H9.91A1.86,1.86,0,0,1,8,23.7v-8a.21.21,0,0,1,.13-.22.27.27,0,0,1,.26,0q1.29,1,6,4.42l.39.35a15.24,15.24,0,0,0,1.49,1,3.64,3.64,0,0,0,1.72.51,3.44,3.44,0,0,0,1.72-.55,10.06,10.06,0,0,0,1.48-1l.39-.31q4.61-3.33,6-4.42a.19.19,0,0,1,.25,0,.27.27,0,0,1,.14.24Zm0-10.51a.88.88,0,0,1-.36.74l-.19.16q-1.68,1.32-6.6,4.88l-.39.27a8.79,8.79,0,0,1-1.21.86,2.53,2.53,0,0,1-1.25.47,2.5,2.5,0,0,1-1.25-.47,8.22,8.22,0,0,1-1.21-.86l-.4-.27c-3.2-2.34-5.37-4-6.52-4.84l-.27-.2A.87.87,0,0,1,8,13.19v-.74a1.86,1.86,0,0,1,1.87-1.88H26.16a1.79,1.79,0,0,1,1.33.55A1.83,1.83,0,0,1,28,12.45Z"/></g></svg>