<?xml version="1.0" encoding="UTF-8" standalone="no"?>
<!-- Generator: Adobe Illustrator 21.0.2, SVG Export Plug-In . SVG Version: 6.00 Build 0)  -->

<svg
   xmlns:dc="http://purl.org/dc/elements/1.1/"
   xmlns:cc="http://creativecommons.org/ns#"
   xmlns:rdf="http://www.w3.org/1999/02/22-rdf-syntax-ns#"
   xmlns:svg="http://www.w3.org/2000/svg"
   xmlns="http://www.w3.org/2000/svg"
   xmlns:xlink="http://www.w3.org/1999/xlink"
   xmlns:sodipodi="http://sodipodi.sourceforge.net/DTD/sodipodi-0.dtd"
   xmlns:inkscape="http://www.inkscape.org/namespaces/inkscape"
   version="1.1"
   x="0px"
   y="0px"
   viewBox="0 0 42.650002 26.25"
   xml:space="preserve"
   id="svg22"
   sodipodi:docname="icon_neighbourhood.svg"
   width="42.650002"
   height="26.25"
   inkscape:version="0.92.1 r15371"><metadata
     id="metadata28"><rdf:RDF><cc:Work
         rdf:about=""><dc:format>image/svg+xml</dc:format><dc:type
           rdf:resource="http://purl.org/dc/dcmitype/StillImage" /><dc:title></dc:title></cc:Work></rdf:RDF></metadata><defs
     id="defs26" /><sodipodi:namedview
     pagecolor="#ffffff"
     bordercolor="#666666"
     borderopacity="1"
     objecttolerance="10"
     gridtolerance="10"
     guidetolerance="10"
     inkscape:pageopacity="0"
     inkscape:pageshadow="2"
     inkscape:window-width="1920"
     inkscape:window-height="1137"
     id="namedview24"
     showgrid="false"
     inkscape:zoom="5.68"
     inkscape:cx="-22.377113"
     inkscape:cy="25.504225"
     inkscape:window-x="-8"
     inkscape:window-y="-8"
     inkscape:window-maximized="1"
     inkscape:current-layer="svg22"
     fit-margin-top="0"
     fit-margin-left="0"
     fit-margin-right="0"
     fit-margin-bottom="0" /><style
     type="text/css"
     id="style2">
	.st0{display:none;}
</style><g
     id="Layer_1"
     class="st0"
     style="display:none"
     transform="translate(-8.468662,-2.2823944)"></g><g
     id="Layer_2"
     transform="translate(-1.525,-1.05)"><g
       id="g9"><path
         style="fill:#666666"
         d="m 30.2,5.7 c 0,0 -0.1,0.1 -0.1,0.1 0,0 0,0 0,0 0,0 -0.1,0 -0.1,0 L 25.8,2.3 21.6,5.8 c 0,0 -0.1,0 -0.1,0 0,0 -0.1,0 -0.1,-0.1 L 21,5.2 C 20.9,5.1 20.9,5 21,4.9 L 25.4,1.2 C 25.7,1 26.1,1 26.3,1.2 l 1.5,1.3 V 1.3 c 0,-0.1 0.1,-0.2 0.2,-0.2 h 1 c 0.1,0 0.2,0.1 0.2,0.2 v 2.5 l 1.3,1.1 c 0.1,0.1 0.1,0.2 0,0.3 z m -1,2.9 C 29.2,8.8 29,9 28.8,9 H 26.4 V 6.6 H 24.8 V 9 H 22.4 C 22.2,9 22,8.8 22,8.6 v -3 c 0,0 0,0 0,0 L 25.5,2.7 29,5.6 c 0,0 0,0 0,0 v 3 z"
         id="path7"
         inkscape:connector-curvature="0" /></g><g
       id="g13"><path
         style="fill:#666666"
         d="m 43.7,12.2 c 0,0.1 -0.1,0.1 -0.2,0.1 0,0 0,0 0,0 -0.1,0 -0.1,0 -0.2,-0.1 l -5.8,-4.8 -5.8,4.8 c -0.1,0 -0.1,0.1 -0.2,0.1 -0.1,0 -0.1,0 -0.2,-0.1 l -0.5,-0.6 c -0.1,-0.1 -0.1,-0.3 0,-0.4 l 6,-5 c 0.4,-0.3 0.9,-0.3 1.3,0 l 2,1.7 V 6.3 C 40.1,6.1 40.2,6 40.4,6 H 42 c 0.2,0 0.3,0.1 0.3,0.3 v 3.4 l 1.8,1.5 c 0.1,0.1 0.1,0.3 0,0.4 z m -1.4,4 c 0,0.3 -0.2,0.5 -0.5,0.5 h -3.2 v -3.2 h -2.1 v 3.2 h -3.2 c -0.3,0 -0.5,-0.2 -0.5,-0.5 v -4 c 0,0 0,0 0,-0.1 l 4.8,-4 4.8,4 c 0,0 0,0 0,0.1 v 4 z"
         id="path11"
         inkscape:connector-curvature="0" /></g><g
       id="g17"><path
         style="fill:#666666"
         d="m 18.6,21.3 c -0.1,0.1 -0.1,0.1 -0.2,0.1 0,0 0,0 0,0 -0.1,0 -0.2,0 -0.2,-0.1 L 10.5,14.9 2.8,21.3 C 2.7,21.4 2.6,21.4 2.5,21.4 2.4,21.4 2.3,21.3 2.3,21.3 L 1.6,20.5 C 1.5,20.4 1.5,20.1 1.6,20 l 8,-6.7 c 0.5,-0.4 1.2,-0.4 1.7,0 L 14,15.6 V 13.4 C 14,13.2 14.2,13 14.4,13 h 2.1 c 0.2,0 0.4,0.2 0.4,0.4 V 18 l 2.4,2 c 0.1,0.1 0.2,0.4 0,0.5 z m -1.8,5.3 c 0,0.4 -0.3,0.7 -0.7,0.7 H 11.8 V 23 H 9 v 4.3 H 4.7 C 4.3,27.3 4,27 4,26.6 v -5.4 c 0,0 0,0 0,-0.1 l 6.4,-5.3 6.4,5.3 c 0,0 0,0 0,0.1 z"
         id="path15"
         inkscape:connector-curvature="0" /></g><path
       style="fill:#666666"
       d="m 25,27.3 h 11.2 c 0,0 -7.9,-15.6 -25.8,-24.2 v 2.8 c 0,0 14.6,12.5 14.6,21.4 z"
       id="path19"
       inkscape:connector-curvature="0" /></g></svg>