<svg xmlns="http://www.w3.org/2000/svg" width="32" height="32"><defs><clipPath ><path d="M0 40h40V0H0z"/></clipPath><clipPath ><path d="M0 40h40V0H0z"/></clipPath><clipPath ><path d="M0 40h40V0H0z"/></clipPath><clipPath ><path d="M0 40h40V0H0z"/></clipPath><clipPath id="E"><path d="M0 40h40V0H0z"/></clipPath></defs><g clip-path="url(#E)" transform="matrix(1.105477 0 0 -1.105476 -5.777041 38.367875)"><path d="M10.995 6.963c-.325 0-.64.064-.934.2-.91.353-1.508 1.212-1.508 2.185v21.576c0 .973.6 1.833 1.525 2.2a2.33 2.33 0 0 0 .917.185h17.542c.324 0 .638-.065.934-.192.91-.35 1.508-1.2 1.508-2.183V9.338c0-.973-.6-1.832-1.525-2.2-.256-.112-.562-.168-.917-.168-.652 0-1.25.23-1.726.667l-7.045 6.772-7.035-6.764c-.492-.45-1.105-.692-1.736-.692" fill="#94ca60"/><path d="M28.537 33.79H10.995a2.85 2.85 0 0 1-1.132-.232c-1.086-.418-1.8-1.46-1.8-2.643V9.338c0-1.18.723-2.223 1.843-2.657.325-.14.706-.218 1.1-.218.755 0 1.488.29 2.063.815l6.708 6.448 6.688-6.43c.582-.532 1.315-.815 2.083-.815a2.81 2.81 0 0 1 1.131.215 2.83 2.83 0 0 1 1.81 2.643v21.576c0 1.182-.724 2.225-1.844 2.657a2.8 2.8 0 0 1-1.097.218m0-1c.25 0 .502-.05.736-.15.737-.284 1.205-.97 1.205-1.724V9.338c0-.754-.468-1.44-1.205-1.724a1.84 1.84 0 0 0-.736-.134c-.52 0-1.005.184-1.4.536l-7.38 7.097-7.382-7.097a2.05 2.05 0 0 0-1.389-.553 1.86 1.86 0 0 0-.737.151c-.737.285-1.205.97-1.205 1.724v21.576c0 .753.468 1.44 1.205 1.724a1.86 1.86 0 0 0 .737.151h17.542" fill="#fff"/></g></svg>